<?xml version="1.0" encoding="UTF-8" standalone="no"?>
<!-- Created with Inkscape (http://www.inkscape.org/) -->
<svg
   xmlns:osb="http://www.openswatchbook.org/uri/2009/osb"
   xmlns:dc="http://purl.org/dc/elements/1.1/"
   xmlns:cc="http://creativecommons.org/ns#"
   xmlns:rdf="http://www.w3.org/1999/02/22-rdf-syntax-ns#"
   xmlns:svg="http://www.w3.org/2000/svg"
   xmlns="http://www.w3.org/2000/svg"
   xmlns:sodipodi="http://sodipodi.sourceforge.net/DTD/sodipodi-0.dtd"
   xmlns:inkscape="http://www.inkscape.org/namespaces/inkscape"
   width="271.99667mm"
   height="74.990524mm"
   viewBox="0 0 271.99666 74.990532"
   version="1.1"
   id="svg8"
   inkscape:version="0.92.3 (2405546, 2018-03-11)"
   sodipodi:docname="banner.svg"
   style="enable-background:new">
  <defs
     id="defs2">
    <linearGradient
       id="linearGradient2299"
       osb:paint="solid">
      <stop
         style="stop-color:#f9f9f9;stop-opacity:1;"
         offset="0"
         id="stop2297" />
    </linearGradient>
  </defs>
  <sodipodi:namedview
     id="base"
     pagecolor="#ffffff"
     bordercolor="#666666"
     borderopacity="1.0"
     inkscape:pageopacity="0.0"
     inkscape:pageshadow="2"
     inkscape:zoom="1"
     inkscape:cx="-14.313158"
     inkscape:cy="-50.09989"
     inkscape:document-units="mm"
     inkscape:current-layer="layer2"
     showgrid="false"
     inkscape:window-width="1920"
     inkscape:window-height="1017"
     inkscape:window-x="-8"
     inkscape:window-y="-8"
     inkscape:window-maximized="1"
     inkscape:showpageshadow="false"
     showborder="false" />
  <metadata
     id="metadata5">
    <rdf:RDF>
      <cc:Work
         rdf:about="">
        <dc:format>image/svg+xml</dc:format>
        <dc:type
           rdf:resource="http://purl.org/dc/dcmitype/StillImage" />
        <dc:title></dc:title>
      </cc:Work>
    </rdf:RDF>
  </metadata>
  <g
     inkscape:label="Camada 1"
     inkscape:groupmode="layer"
     id="layer1"
     transform="translate(626.72383,806.66899)" />
  <g
     inkscape:groupmode="layer"
     id="layer2"
     inkscape:label="Camada 2"
     transform="translate(626.72383,806.66899)">
    <path
       style="fill:#dbefdc;fill-opacity:1;stroke:#282a59;stroke-width:0.91205245;stroke-opacity:1;enable-background:new"
       d="m -626.16738,-769.17373 0.0992,-37.03923 h 135.44189 135.4419 l -0.0992,37.03923 -0.0992,37.03924 h -135.4419 -135.44189 z m 53.90939,29.90665 0.0126,-4.70687 -2.09477,-1.26421 -2.09477,-1.2642 h -5.54775 -5.54777 l -0.016,5.97105 -0.016,5.97108 h 7.64592 7.64591 z m 26.83875,-0.01 0.0126,-4.71655 -2.11849,-1.25896 -1.73499,-1.03108 -0.38352,-0.2279 -5.60219,0.0511 -5.6022,0.0511 -0.0979,5.68924 c -0.0538,3.12908 -0.16128,5.93265 -0.0786,6.06199 0.11525,0.18033 2.06681,0.0976 7.93698,0.0976 h 7.6557 l 0.0127,-4.71655 z m -56.13047,-16.27545 0.002,-0.83967 h -2.82419 c -3.44915,0 -4.3694,-0.24014 -5.15679,-1.34566 -0.50591,-0.71031 -0.59097,-1.60722 -0.75719,-7.98413 -0.20095,-7.70894 -0.27748,-8.10332 -1.97721,-10.18737 -0.47343,-0.58046 -1.49341,-1.35976 -2.43208,-1.85816 l -1.61668,-0.8584 0.78101,-0.30694 c 1.32779,-0.52182 2.71129,-1.47374 3.43283,-2.362 1.54948,-1.90749 1.63981,-2.39226 1.87912,-10.08402 0.24765,-7.95894 0.31545,-8.24615 2.11467,-8.95638 0.67371,-0.26594 1.63178,-0.3756 3.78868,-0.43359 l 2.88691,-0.0776 0.002,-0.72413 0.002,-0.72413 -3.35484,0.004 c -3.82405,0.005 -5.31619,0.28993 -6.71833,1.28437 -1.59271,1.1296 -1.79435,2.00176 -1.81293,7.84193 -0.0264,8.27052 -0.66996,11.05158 -2.91226,12.58276 -0.56229,0.38395 -1.58315,0.81131 -2.2706,0.9505 -1.21925,0.24688 -1.24905,0.27372 -1.25133,1.12728 -0.002,0.84593 0.0364,0.88235 1.18796,1.11918 1.56507,0.32188 2.30026,0.74098 3.231,1.8419 1.4774,1.7475 1.68031,2.87859 1.89574,10.5671 0.18906,6.74807 0.24096,7.23611 0.85515,8.04386 0.64948,0.85413 2.06708,1.65889 3.54299,2.0113 0.42371,0.10117 2.28003,0.18928 4.12518,0.19578 l 3.35481,0.0118 z m 46.51289,-4.94478 c 0.34731,-0.20732 0.62582,-0.62197 0.62665,-0.93297 6.5e-4,-0.31099 -0.27546,-0.72566 -0.62164,-0.93298 -0.60621,-0.36303 -1.03927,-0.37319 -15.91499,-0.37319 -14.87573,0 -15.30884,0.0101 -15.91699,0.37319 -0.3473,0.20732 -0.62582,0.62199 -0.62666,0.93298 -6.4e-4,0.311 0.27547,0.72565 0.62166,0.93297 0.60621,0.36304 1.03927,0.37319 15.915,0.37319 14.87571,0 15.30882,-0.0101 15.91697,-0.37319 z m 82.70068,0 c 0.34732,-0.20732 0.62585,-0.62197 0.62667,-0.93297 0.001,-0.31099 -0.27546,-0.72566 -0.62166,-0.93298 -0.61602,-0.36892 -1.03925,-0.37319 -36.98026,-0.37319 -35.94099,0 -36.36424,0.004 -36.98224,0.37319 -0.34731,0.20732 -0.62582,0.62199 -0.62666,0.93298 -6.4e-4,0.311 0.27546,0.72565 0.62166,0.93297 0.61603,0.36892 1.03926,0.37319 36.98025,0.37319 35.941,0 36.36426,-0.004 36.98224,-0.37319 z m 19.97302,0 c 0.34731,-0.20732 0.62581,-0.62197 0.62664,-0.93297 10e-4,-0.31099 -0.27544,-0.72566 -0.62165,-0.93298 -0.57122,-0.34209 -1.03926,-0.37319 -5.61641,-0.37319 -4.57713,0 -5.04534,0.0311 -5.61841,0.37319 -0.3473,0.20732 -0.6258,0.62199 -0.62664,0.93298 -0.001,0.311 0.27545,0.72565 0.62165,0.93297 0.57122,0.34209 1.03927,0.37319 5.6164,0.37319 4.57716,0 5.04535,-0.0311 5.61842,-0.37319 z m 53.05327,0 c 0.3473,-0.20732 0.6258,-0.62197 0.62664,-0.93297 10e-4,-0.31099 -0.27545,-0.72566 -0.62164,-0.93298 -0.61113,-0.36598 -1.03927,-0.37319 -22.15656,-0.37319 -21.11728,0 -21.54547,0.007 -22.15855,0.37319 -0.34729,0.20732 -0.62581,0.62199 -0.62664,0.93298 -10e-4,0.311 0.27546,0.72565 0.62164,0.93297 0.61112,0.36598 1.03928,0.37319 22.15657,0.37319 21.11727,0 21.54546,-0.007 22.15854,-0.37319 z m -137.29138,-8.58346 c 0.34732,-0.20734 0.62583,-0.62198 0.62666,-0.93298 6.5e-4,-0.31099 -0.27546,-0.72564 -0.62165,-0.93298 -0.61257,-0.36686 -1.03926,-0.37319 -25.12129,-0.37319 -24.08202,0 -24.50874,0.006 -25.12329,0.37319 -0.3473,0.20734 -0.62582,0.62199 -0.62666,0.93298 -6.4e-4,0.311 0.27547,0.72564 0.62167,0.93298 0.61258,0.36685 1.03926,0.37319 25.12129,0.37319 24.08202,0 24.50875,-0.006 25.12327,-0.37319 z m 32.45613,0 c 0.34731,-0.20734 0.62584,-0.62198 0.62666,-0.93298 10e-4,-0.31099 -0.27547,-0.72564 -0.62166,-0.93298 -0.60008,-0.35937 -1.03925,-0.37319 -11.85796,-0.37319 -10.81872,0 -11.25797,0.0138 -11.85997,0.37319 -0.34732,0.20734 -0.62583,0.62199 -0.62666,0.93298 -6.5e-4,0.311 0.27546,0.72564 0.62166,0.93298 0.60007,0.35936 1.03925,0.37319 11.85796,0.37319 10.81873,0 11.25797,-0.0138 11.85997,-0.37319 z m 92.37511,0 c 0.34731,-0.20734 0.62583,-0.62198 0.62666,-0.93298 10e-4,-0.31099 -0.27546,-0.72564 -0.62167,-0.93298 -0.61685,-0.36942 -1.03926,-0.37319 -41.81745,-0.37319 -40.7782,0 -41.20061,0.003 -41.81948,0.37319 -0.34729,0.20734 -0.6258,0.62199 -0.62663,0.93298 -10e-4,0.311 0.27544,0.72564 0.62164,0.93298 0.61688,0.36942 1.03928,0.37319 41.81747,0.37319 40.7782,0 41.20062,-0.003 41.81946,-0.37319 z m 47.74795,0 c 0.34732,-0.20734 0.62582,-0.62198 0.62665,-0.93298 0.001,-0.31099 -0.27545,-0.72564 -0.62166,-0.93298 -0.60941,-0.36496 -1.03924,-0.37319 -19.50387,-0.37319 -18.46462,0 -18.89451,0.008 -19.50588,0.37319 -0.34731,0.20734 -0.62582,0.62199 -0.62665,0.93298 -10e-4,0.311 0.27546,0.72564 0.62165,0.93298 0.60942,0.36497 1.03927,0.37319 19.50388,0.37319 18.46463,0 18.8945,-0.008 19.50588,-0.37319 z m -199.08283,-8.58339 c 0.34732,-0.20732 0.62583,-0.62198 0.62666,-0.93298 6.5e-4,-0.31099 -0.27546,-0.72564 -0.62166,-0.93297 -0.60007,-0.35938 -1.03925,-0.3732 -11.85797,-0.3732 -10.81869,0 -11.25796,0.0138 -11.85996,0.3732 -0.3473,0.20733 -0.62582,0.62198 -0.62666,0.93297 -6.4e-4,0.311 0.27547,0.72566 0.62166,0.93298 0.60008,0.35937 1.03927,0.37319 11.85796,0.37319 10.81872,0 11.25798,-0.0138 11.85997,-0.37319 z m 47.74796,0 c 0.34731,-0.20732 0.62582,-0.62198 0.62665,-0.93298 0.001,-0.31099 -0.27545,-0.72564 -0.62165,-0.93297 -0.60943,-0.36497 -1.03927,-0.3732 -19.50389,-0.3732 -18.46462,0 -18.89451,0.008 -19.50588,0.3732 -0.3473,0.20733 -0.62581,0.62198 -0.62665,0.93297 -6.4e-4,0.311 0.27546,0.72566 0.62166,0.93298 0.60941,0.36497 1.03926,0.37319 19.50387,0.37319 18.46462,0 18.89451,-0.008 19.50589,-0.37319 z m 82.38861,0 c 0.80373,-0.47979 0.80617,-1.38615 0.005,-1.86595 -0.616,-0.36891 -1.03927,-0.3732 -36.82422,-0.3732 -35.78496,0 -36.20823,0.004 -36.82623,0.3732 -0.3473,0.20733 -0.62581,0.62198 -0.62664,0.93297 -0.001,0.311 0.27546,0.72566 0.62166,0.93298 0.61601,0.3689 1.03927,0.37319 36.82421,0.37319 35.78494,0 36.20824,-0.004 36.82622,-0.37319 z m 19.97299,0 c 0.34731,-0.20732 0.62583,-0.62198 0.62667,-0.93298 0.001,-0.31099 -0.27547,-0.72564 -0.62168,-0.93297 -0.57121,-0.34209 -1.03925,-0.3732 -5.6164,-0.3732 -4.57715,0 -5.04535,0.0311 -5.61841,0.3732 -0.34729,0.20733 -0.62581,0.62198 -0.62664,0.93297 -0.001,0.311 0.27546,0.72566 0.62165,0.93298 0.57122,0.3421 1.03925,0.37319 5.61641,0.37319 4.57715,0 5.04534,-0.0311 5.6184,-0.37319 z m -141.97252,-8.5834 c 0.3473,-0.20733 0.62581,-0.62198 0.62664,-0.93298 6.5e-4,-0.31099 -0.27546,-0.72564 -0.62165,-0.93297 -0.6062,-0.36304 -1.03926,-0.37319 -15.91498,-0.37319 -14.87573,0 -15.30884,0.0101 -15.91699,0.37319 -0.3473,0.20733 -0.62582,0.62198 -0.62665,0.93297 -6.5e-4,0.311 0.27546,0.72565 0.62165,0.93298 0.60621,0.36304 1.03927,0.3732 15.915,0.3732 14.87571,0 15.30883,-0.0101 15.91698,-0.3732 z m 82.70068,0 c 0.34731,-0.20733 0.62583,-0.62198 0.62666,-0.93298 10e-4,-0.31099 -0.27547,-0.72564 -0.62166,-0.93297 -0.61602,-0.36892 -1.03925,-0.37319 -36.98025,-0.37319 -35.941,0 -36.36425,0.004 -36.98225,0.37319 -0.34731,0.20733 -0.62582,0.62198 -0.62666,0.93297 -6.4e-4,0.311 0.27546,0.72565 0.62166,0.93298 0.61602,0.36893 1.03926,0.3732 36.98025,0.3732 35.941,0 36.36425,-0.004 36.98225,-0.3732 z m 40.57015,0 c 0.3473,-0.20733 0.62583,-0.62198 0.62666,-0.93298 10e-4,-0.31099 -0.27546,-0.72564 -0.62167,-0.93297 -0.60619,-0.36304 -1.03925,-0.37319 -15.91498,-0.37319 -14.8757,0 -15.30883,0.0101 -15.91698,0.37319 -0.34731,0.20733 -0.6258,0.62198 -0.62664,0.93297 -0.001,0.311 0.27545,0.72565 0.62165,0.93298 0.60621,0.36304 1.03928,0.3732 15.91498,0.3732 14.87573,0 15.30884,-0.0101 15.91698,-0.3732 z m 32.45613,0 c 0.34731,-0.20733 0.62581,-0.62198 0.62664,-0.93298 0.001,-0.31099 -0.27544,-0.72564 -0.62164,-0.93297 -0.60008,-0.35937 -1.03927,-0.37319 -11.85797,-0.37319 -10.81872,0 -11.25798,0.0138 -11.85997,0.37319 -0.34731,0.20733 -0.62582,0.62198 -0.62666,0.93297 -0.001,0.311 0.27546,0.72565 0.62167,0.93298 0.60006,0.35938 1.03925,0.3732 11.85796,0.3732 10.8187,0 11.25796,-0.0138 11.85997,-0.3732 z m -137.29137,-8.5834 c 0.34731,-0.20732 0.62582,-0.62198 0.62666,-0.93298 6.4e-4,-0.31099 -0.27545,-0.72564 -0.62166,-0.93298 -0.61257,-0.36684 -16.7446,-0.37318 -25.12129,-0.37318 -8.37668,0 -24.50875,0.006 -25.12328,0.37318 -0.34732,0.20733 -0.62666,0.93298 -0.62666,0.93298 -6.5e-4,0.311 0.27546,0.72566 0.62166,0.93298 0.61258,0.36686 1.03927,0.37319 25.12128,0.37319 24.08203,0 24.50876,-0.006 25.12329,-0.37319 z m 32.45612,0 c 0.34731,-0.20732 0.62583,-0.62198 0.62667,-0.93298 0.001,-0.31099 -0.27547,-0.72564 -0.62167,-0.93298 -0.60008,-0.35936 -1.03925,-0.37318 -11.85797,-0.37318 -10.81871,0 -11.25796,0.0138 -11.85996,0.37318 -0.34731,0.20734 -0.62583,0.62199 -0.62666,0.93298 -6.5e-4,0.311 0.27546,0.72566 0.62166,0.93298 0.60007,0.35938 1.03925,0.37319 11.85797,0.37319 10.81871,0 11.25795,-0.0138 11.85996,-0.37319 z m 47.74795,0 c 0.3473,-0.20732 0.62582,-0.62198 0.62666,-0.93298 10e-4,-0.31099 -0.27547,-0.72564 -0.62166,-0.93298 -0.60943,-0.36496 -1.03925,-0.37318 -19.50388,-0.37318 -18.46461,0 -18.89451,0.008 -19.50589,0.37318 -0.3473,0.20734 -0.6258,0.62199 -0.62664,0.93298 -10e-4,0.311 0.27544,0.72566 0.62165,0.93298 0.60942,0.36497 1.03927,0.37319 19.50388,0.37319 18.46463,0 18.8945,-0.008 19.50588,-0.37319 z m 82.38861,0 c 0.80374,-0.47979 0.80618,-1.38616 0.005,-1.86596 -0.616,-0.3689 -1.03926,-0.37318 -36.82424,-0.37318 -35.78493,0 -36.20822,0.004 -36.8262,0.37318 -0.34731,0.20734 -0.62582,0.62199 -0.62664,0.93298 -0.001,0.311 0.27544,0.72566 0.62163,0.93298 0.61601,0.3689 1.03928,0.37319 36.82421,0.37319 35.78497,0 36.20826,-0.004 36.82623,-0.37319 z"
       id="path826"
       inkscape:connector-curvature="0"
       sodipodi:nodetypes="cccccccccccccccccccccccccccscscccccscscscccsccccccccccsccsccccccscsssssccssscsssccscsssssccssscsssccscscscsccssscscsccssscscsccscscscsccscsssssccscscscscccscssscssssssssscscsssssccssscssscsssssssssssssssssscssassssccscscscsccscscscscccscscsc" />
  </g>
</svg>