<?xml version="1.0" encoding="UTF-8" standalone="no"?>
<!-- Created with Inkscape (http://www.inkscape.org/) -->
<svg
   xmlns:dc="http://purl.org/dc/elements/1.1/"
   xmlns:cc="http://creativecommons.org/ns#"
   xmlns:rdf="http://www.w3.org/1999/02/22-rdf-syntax-ns#"
   xmlns:svg="http://www.w3.org/2000/svg"
   xmlns="http://www.w3.org/2000/svg"
   xmlns:sodipodi="http://sodipodi.sourceforge.net/DTD/sodipodi-0.dtd"
   xmlns:inkscape="http://www.inkscape.org/namespaces/inkscape"
   width="5.3668499mm"
   height="4.1005378mm"
   viewBox="0 0 5.3668497 4.1005378"
   version="1.1"
   id="svg8"
   inkscape:version="0.92.3 (2405546, 2018-03-11)"
   sodipodi:docname="desenhando.svg"
   inkscape:export-filename="D:\Desenvolvimento\snippets-codes\snippets\assets\imagens\bitmap.png"
   inkscape:export-xdpi="55.085499"
   inkscape:export-ydpi="55.085499">
  <defs
     id="defs2" />
  <sodipodi:namedview
     id="base"
     pagecolor="#ffffff"
     bordercolor="#666666"
     borderopacity="1.0"
     inkscape:pageopacity="0.0"
     inkscape:pageshadow="2"
     inkscape:zoom="1.4142136"
     inkscape:cx="-35.431461"
     inkscape:cy="-23.795696"
     inkscape:document-units="mm"
     inkscape:current-layer="layer1"
     showgrid="false"
     inkscape:window-width="1366"
     inkscape:window-height="705"
     inkscape:window-x="206"
     inkscape:window-y="1072"
     inkscape:window-maximized="1" />
  <metadata
     id="metadata5">
    <rdf:RDF>
      <cc:Work
         rdf:about="">
        <dc:format>image/svg+xml</dc:format>
        <dc:type
           rdf:resource="http://purl.org/dc/dcmitype/StillImage" />
        <dc:title></dc:title>
      </cc:Work>
    </rdf:RDF>
  </metadata>
  <g
     inkscape:label="Camada 1"
     inkscape:groupmode="layer"
     id="layer1"
     transform="translate(-61.096067,-134.6034)">
    <g
       transform="matrix(0.10560092,0,0,0.27480067,73.091905,157.1231)"
       id="layer1-7"
       inkscape:label="Camada 1"
       style="stroke-width:5.87025976">
      <rect
         rx="16.285751"
         ry="6.2583179"
         y="-79.791939"
         x="-105.71113"
         height="2.6702542"
         width="17.839931"
         id="rect2873"
         style="fill:#ffbf5f;fill-opacity:1;stroke:#000000;stroke-width:1.55317271;stroke-opacity:0" />
      <rect
         rx="16.285769"
         ry="6.2583241"
         y="-79.885483"
         x="-86.374489"
         height="2.6702542"
         width="15.675116"
         id="rect2873-3"
         style="fill:#ff7f2a;fill-opacity:1;stroke:#282a59;stroke-width:1.55317271;stroke-opacity:0" />
      <rect
         rx="18.289436"
         ry="7.0282974"
         inkscape:transform-center-y="2.1804828"
         inkscape:transform-center-x="-5.1141205"
         y="-75.93383"
         x="-106.00669"
         height="2.7037978"
         width="11.762465"
         id="rect2873-8"
         style="fill:#ff6666;fill-opacity:1;stroke:#ff6666;stroke-width:1.27185881;stroke-opacity:1" />
      <rect
         rx="17.538517"
         ry="6.7397332"
         y="-75.91188"
         x="-93.12133"
         height="2.6379759"
         width="23.340878"
         id="rect2873-5"
         style="fill:#23caef;fill-opacity:1;stroke:#000000;stroke-width:1.82387841;stroke-opacity:0" />
      <rect
         rx="18.062534"
         ry="6.941103"
         y="-71.861984"
         x="-105.03153"
         height="2.6702542"
         width="14.889306"
         id="rect2873-7"
         style="fill:#7e74ee;fill-opacity:1;stroke:#7e74ee;stroke-width:1.55317271;stroke-opacity:1" />
      <rect
         rx="17.538517"
         ry="6.7397332"
         y="-71.858826"
         x="-88.862381"
         height="2.6639359"
         width="18.17709"
         id="rect2873-2"
         style="fill:#ff6666;fill-opacity:1;stroke:none;stroke-width:1.60616052;stroke-opacity:1" />
      <g
         id="text2871-3"
         style="font-style:normal;font-weight:normal;font-size:23.39447212px;line-height:1.25;font-family:sans-serif;letter-spacing:0px;word-spacing:0px;fill:#cccccc;fill-opacity:1;stroke:none;stroke-width:3.51465487;paint-order:markers stroke fill"
         transform="matrix(-1.0550109,0,0,0.66504087,-22.110263,0)"
         aria-label="{">
        <path
           inkscape:connector-curvature="0"
           id="path6681"
           style="fill:#cccccc;stroke-width:3.51465487;paint-order:markers stroke fill"
           d="m 49.281094,-100.97216 h -1.713462 q -2.044732,0 -3.324117,-1.14231 -1.267962,-1.13089 -1.267962,-3.27843 v -1.70204 q 0,-1.9305 -0.948116,-3.01569 -0.948116,-1.09662 -2.901463,-1.09662 h -0.582577 v -1.782 h 0.582577 q 1.953347,0 2.901463,-1.08519 0.948116,-1.09662 0.948116,-3.02712 v -1.70204 q 0,-2.14753 1.267962,-3.27842 1.279385,-1.14231 3.324117,-1.14231 h 1.713462 v 1.57639 h -1.302231 q -1.55354,0 -2.261771,0.71965 -0.696808,0.71966 -0.696808,2.31889 v 1.99904 q 0,1.58781 -0.879577,2.673 -0.879577,1.07377 -2.44454,1.70204 v 0.27415 q 1.564963,0.62827 2.44454,1.71346 0.879577,1.07377 0.879577,2.66158 v 1.99904 q 0,1.59923 0.696808,2.31889 0.708231,0.71965 2.261771,0.71965 h 1.302231 z" />
      </g>
      <g
         id="text2871-3-8"
         style="font-style:normal;font-weight:normal;font-size:22.30569839px;line-height:1.25;font-family:sans-serif;letter-spacing:0px;word-spacing:0px;fill:#cccccc;fill-opacity:1;stroke:none;stroke-width:3.28647685;paint-order:markers stroke fill"
         transform="matrix(1.1504396,0,0,0.6975025,-20.115689,0)"
         aria-label="{">
        <path
           inkscape:connector-curvature="0"
           id="path6687"
           style="fill:#cccccc;stroke-width:3.28647685;paint-order:markers stroke fill"
           d="m -71.018169,-96.096219 h -1.633718 q -1.949571,0 -3.169414,-1.089146 -1.208951,-1.078254 -1.208951,-3.125845 v -1.62283 q 0,-1.84065 -0.903991,-2.87534 -0.903991,-1.04558 -2.766429,-1.04558 h -0.555464 v -1.69907 h 0.555464 q 1.862438,0 2.766429,-1.03469 0.903991,-1.04558 0.903991,-2.88623 v -1.62283 q 0,-2.04759 1.208951,-3.12585 1.219843,-1.08914 3.169414,-1.08914 h 1.633718 v 1.50302 h -1.241626 q -1.481238,0 -2.156508,0.68616 -0.664379,0.68616 -0.664379,2.21097 v 1.906 q 0,1.51391 -0.838642,2.5486 -0.838642,1.0238 -2.330771,1.62283 v 0.26139 q 1.492129,0.59903 2.330771,1.63372 0.838642,1.0238 0.838642,2.53771 v 1.906 q 0,1.524807 0.664379,2.210969 0.67527,0.686161 2.156508,0.686161 h 1.241626 z" />
      </g>
    </g>
  </g>
</svg>